# xmcd
#
# Track frame offsets: 
#        182
#        22417
#        52137
#        73690
#        115250
#        140435
#        189020
#        199912
#        224082
#
# Disc length: 3309 seconds
#
# Revision: 1
# Processed by: cddbd v1.5.2PL0 Copyright (c) Steve Scherf et al.
# Submitted via: ExactAudioCopy v0.99pb5
#
DISCID=930ceb09
DTITLE=Rory Gallagher - Messin` with the Kid
DYEAR=1974
DGENRE=Blues
TTITLE0=Tattoo 'd Lady
TTITLE1=Cradle Rock
TTITLE2=Laundromat
TTITLE3=A Million Miles Away
TTITLE4=Messin` With The Kid
TTITLE5=Walk On Hot Coals
TTITLE6=Pistol Slapper Blues
TTITLE7=As The Crow Flies
TTITLE8=What`s Going On
EXTD=
EXTT0=
EXTT1=
EXTT2=
EXTT3=
EXTT4=
EXTT5=
EXTT6=
EXTT7=
EXTT8=
PLAYORDER=
